<?xml version="1.0" encoding="UTF-8" standalone="no"?>
<svg
   xmlns:dc="http://purl.org/dc/elements/1.1/"
   xmlns:cc="http://creativecommons.org/ns#"
   xmlns:rdf="http://www.w3.org/1999/02/22-rdf-syntax-ns#"
   xmlns:svg="http://www.w3.org/2000/svg"
   xmlns="http://www.w3.org/2000/svg"
   xmlns:sodipodi="http://sodipodi.sourceforge.net/DTD/sodipodi-0.dtd"
   xmlns:inkscape="http://www.inkscape.org/namespaces/inkscape"
   width="103.17496mm"
   height="102.51881mm"
   id="svg2"
   sodipodi:version="0.32"
   inkscape:version="1.0 (4035a4fb49, 2020-05-01)"
   sodipodi:docname="Talaria.svg"
   inkscape:output_extension="org.inkscape.output.svg.inkscape"
   version="1.0">
  <defs
     id="defs4">
    <clipPath
       clipPathUnits="userSpaceOnUse"
       id="clipPath15">
      <rect
         style="fill:#0000ff;fill-rule:evenodd"
         id="rect17"
         width="176.10858"
         height="373.63577"
         x="95.851921"
         y="194.43294" />
    </clipPath>
  </defs>
  <sodipodi:namedview
     id="base"
     pagecolor="#ffffff"
     bordercolor="#666666"
     borderopacity="1.0"
     gridtolerance="10000"
     guidetolerance="10"
     objecttolerance="10"
     inkscape:pageopacity="0.0"
     inkscape:pageshadow="2"
     inkscape:zoom="0.84039061"
     inkscape:cx="297.18502"
     inkscape:cy="277.37235"
     inkscape:document-units="px"
     inkscape:current-layer="layer1"
     inkscape:window-width="1920"
     inkscape:window-height="1016"
     inkscape:window-x="0"
     inkscape:window-y="27"
     inkscape:document-rotation="0"
     showgrid="false"
     fit-margin-top="0"
     fit-margin-left="0"
     fit-margin-right="0"
     fit-margin-bottom="0"
     inkscape:window-maximized="1"
     units="mm" />
  <metadata
     id="metadata7">
    <rdf:RDF>
      <cc:Work
         rdf:about="">
        <dc:format>image/svg+xml</dc:format>
        <dc:type
           rdf:resource="http://purl.org/dc/dcmitype/StillImage" />
        <dc:title></dc:title>
      </cc:Work>
    </rdf:RDF>
  </metadata>
  <g
     inkscape:label="Layer 1"
     inkscape:groupmode="layer"
     id="layer1"
     transform="translate(11.070091,-187.51448)">
    <path
       style="fill:#000000"
       d="M 491.34652,896.96482 C 441.34359,891.41984 395.38796,863.46715 344.27968,860.27764 268.91505,850.22017 192.74589,852.77087 117.18357,857.72133 85.942637,862.0134 57.209686,847.78324 36.947721,825.15869 20.936133,800.53237 27.856974,769.9365 29.339841,742.48973 31.427863,706.93802 41.002065,672.88258 48.707892,638.28409 69.284449,533.82298 66.252419,426.69869 59.351508,321.29988 54.447477,281.84573 62.483397,239.91147 46.729564,202.75155 23.349961,147.86634 16.218616,86.840536 21.198306,27.843735 c 6.979601,20.391615 1.394009,62.267571 10.630197,90.338495 7.742922,31.25361 10.958307,56.80727 25.859412,85.78898 19.888105,14.83381 13.039878,32.48108 13.156215,58.41338 2.006464,22.12298 -3.812648,24.68894 -3.800451,32.5312 6.145888,52.73203 3.411616,106.69009 8.381345,159.1319 -8.018488,38.51331 -0.144427,82.32184 -11.197254,118.71604 2.858006,25.3688 -7.640148,61.45672 -14.073888,90.12626 -1.88874,13.58158 -21.001423,56.84188 5.672403,32.26147 34.983608,-13.01497 72.890255,-19.36173 110.222275,-15.91224 21.92194,21.86192 22.99198,57.56227 41.16887,83.0723 14.26946,30.05804 39.38761,54.9866 68.19251,70.50752 15.87642,6.67083 18.27613,-10.46178 2.10237,-4.58469 25.07363,-15.54213 -35.15234,-30.12336 -35.3772,-55.03937 -20.53763,-31.89538 -38.08015,-69.76358 -38.1012,-107.2306 33.65435,-16.11099 35.01566,-64.22641 57.53578,-82.98185 30.75012,3.38559 34.21141,-18.21014 18.62012,-32.58605 -24.07932,34.1478 -60.27802,56.42575 -86.99667,88.17608 -31.96472,15.33252 41.36022,-28.89536 6.84791,-47.41476 -19.17469,-17.61328 -62.23851,10.07778 -91.24192,1.50026 -45.691752,6.96872 -22.635319,63.67062 15.27132,56.23787 14.82425,5.41515 82.40755,-11.61556 35.86962,3.42952 -29.36617,2.53141 -81.102859,2.85589 -83.521929,-36.34553 10.185724,-43.2008 62.563929,-28.55348 94.778699,-35.94236 43.04858,-7.12783 83.17231,-34.43061 104.57913,-72.4034 32.34393,-23.66497 51.11021,40.51551 14.51992,42.23179 24.7269,23.45018 46.26356,49.36264 76.50764,66.77061 48.87969,37.11735 85.29934,88.34566 137.32158,121.39466 38.08146,16.71625 76.19176,41.20309 119.07652,39.92724 31.90541,16.04706 77.67243,7.00168 101.03159,31.76517 -0.35128,30.33199 -29.60079,46.24631 -37.68534,73.27187 -25.69973,4.44076 -55.34431,14.85877 -80.1521,1.16164 -26.98704,4.16647 -63.37089,10.66362 -96.23203,12.67529 -6.27301,-0.55264 -12.65554,1.7981 -18.81723,0.13239 z m 30.67873,-9.77375 c 7.36556,-3.58872 -45.36269,-7.81416 -59.43219,-18.14118 -39.65689,-20.70045 -83.85808,-38.42003 -129.23852,-36.60967 1.65667,32.64013 61.87987,15.37803 85.05469,35.2406 32.8651,12.14712 68.16818,23.76695 103.61602,19.51025 z m 42.37865,-3.03397 c 20.20258,-7.22193 -32.31171,-3.52051 0,0 z m -14.0976,-1.94997 c -1.84112,-5.44547 -7.72067,3.46409 0,0 z m 77.73625,-1.1157 c 8.98383,-3.83869 -20.00857,-28.9557 -21.45179,-25.36362 -28.56512,-0.30351 -0.56179,29.52268 21.45181,25.36361 z m -40.33085,-2.57964 c 11.64219,-22.11571 -31.90667,-2.57131 0,0 z m 93.59614,-2.46548 c 29.32305,-30.59692 -38.06031,-14.16623 -49.31214,-24.28693 -46.89996,2.59392 38.29785,36.82607 49.31214,24.28693 z m -89.08856,0.0401 c -3.81665,-1.80574 -2.25594,3.2189 0,0 z m -53.26459,-3.30492 c 27.29129,5.30431 -30.8975,-39.99822 -10.85122,-32.63599 3.99412,19.96446 49.35815,43.01447 17.85618,14.37409 -19.09409,-47.71759 15.52952,40.76338 36.15516,4.13063 18.55371,-5.86295 -24.10635,-29.79361 -1.6459,-23.75287 -2.85972,-13.6829 30.07904,29.77859 39.66039,8.72031 -12.81005,-15.10437 -20.70682,-44.84832 -0.57068,-13.92003 17.67876,20.32825 15.4353,7.62123 7.94385,-6.82017 6.05753,17.44576 31.00005,35.57835 12.80828,6.36347 2.87453,2.31376 31.17608,36.23494 15.60521,8.77609 -2.19392,-14.95856 18.34169,28.87833 35.032,9.25895 19.06803,0.2161 41.41948,-49.2651 0.81869,-33.52781 -26.29751,-10.6289 -38.54006,-27.90399 -69.46215,-29.62439 -27.71847,5.02221 -50.03019,-10.50901 -76.80134,-18.59718 -26.39887,-17.25253 -60.394,-27.39891 -83.78959,-47.58905 -33.59817,-40.70379 -72.56242,-77.47018 -115.2582,-108.62638 -35.93805,-26.69422 -5.73206,50.47886 -14.33868,73.88917 2.58967,17.51279 -2.4697,58.06357 -4.40945,18.42327 -3.51145,-46.83292 10.39799,-104.68763 -29.80668,-139.44587 3.71765,23.92222 6.42487,61.02428 4.66201,89.84578 -1.37382,50.50569 -4.4765,101.65104 4.38808,151.59056 26.02491,0.41472 10.82844,10.99347 8.77389,7.99715 25.69585,-3.87952 5.66178,-62.69428 16.40927,-79.94966 3.24233,28.97696 -1.81246,61.79901 10.41624,86.50222 -11.28385,-18.06866 -14.10867,-11.59532 -11.53494,0.34564 8.58444,-1.1685 26.54432,5.54328 38.83605,6.50264 29.55826,19.94079 -16.98851,-50.44147 4.76658,-19.41476 -1.31099,25.78902 56.68817,42.42581 23.64808,10.45655 -8.86105,-32.59542 36.29833,53.94396 17.69854,10.60769 -17.26246,-44.50235 14.5948,25.63315 24.71009,18.29156 -16.79449,-12.40132 -26.74371,-73.06604 -11.14597,-23.58445 8.71012,25.06955 31.9998,42.60721 56.70033,41.94695 -16.79988,-13.0378 -29.13833,-67.25476 -9.63824,-21.58341 5.03935,14.51642 39.52445,41.53806 16.09888,12.57378 -14.38414,-17.82769 -12.02709,-35.46306 -0.4002,-6.40689 13.53347,18.873 22.04849,29.38462 46.66544,24.88241 z m -6.28775,-2.55403 c -18.76428,-12.43135 -28.91011,-53.61024 -8.41333,-15.3077 1.0375,4.68195 25.59109,19.86039 8.41333,15.3077 z m -13.23685,-0.77967 c -16.46501,-6.66923 -30.27534,-57.17037 -12.1806,-20.95042 0.50826,5.44411 30.70403,28.99977 12.1806,20.95042 z m 47.71836,-8.83573 c -28.2988,-28.13225 -1.78547,-15.19459 5.03768,0.32339 l -2.54119,0.47134 -2.49647,-0.79474 z m -92.95971,-0.79849 c -17.35564,-7.74089 -35.04494,-72.77905 -15.7872,-29.99897 -2.19134,8.49828 24.81309,29.28695 15.7872,29.99897 z m 101.56482,-6.84444 c -19.62051,-19.40634 -9.96973,-18.49151 5.44619,-0.93454 8.24702,1.57419 -6.7202,7.35389 -5.44619,0.93454 z M 454.157,850.81575 c -16.33025,-11.81551 -25.93151,-76.08781 -10.33491,-25.18934 -0.86448,1.99029 23.50589,35.09531 10.33491,25.18934 z m 219.38432,-7.17053 c -20.76727,-21.23076 18.08107,4.7159 0,0 z m 11.0661,-2.38439 c -22.21264,-18.77771 12.65669,-1.46813 0,0 z m -78.17477,-1.96926 c -18.35226,-27.6795 16.52485,8.59786 0,0 z m -9.75212,-3.212 c -19.12827,-23.74022 9.50208,2.06026 0,0 z m 94.56418,-1.49558 c -16.2286,-19.5337 18.87299,11.68974 0,0 z m -26.45368,-3.71605 c -2.14212,-8.18524 6.59298,6.43783 0,0 z m 36.27548,0.43144 c 0.41594,-7.40031 5.82844,5.86506 0,0 z m -307.69775,-5.16957 c -7.16917,-24.86369 13.06958,10.72781 0,0 z m -27.89182,-6.71521 c -24.34045,-34.35426 16.90837,5.71526 0,0 z m -12.71263,-1.08101 c -13.06641,-12.89634 -12.69483,-45.2588 -2.28345,-12.52597 -0.90317,0.63951 12.11155,16.43924 2.28345,12.52597 z m 33.1641,-4.88481 c -16.13654,-29.62414 5.28159,-12.1631 0,0 z m -53.9043,-1.88414 c 2.40865,-3.38203 2.40864,3.382 0,0 z m 76.59731,-5.34219 c -4.83552,-14.61117 9.1275,-0.94948 0,0 z m -15.28629,-5.90868 c -5.01097,-23.90635 9.84865,9.2817 0,0 z m -83.22963,-0.71183 c 0.45275,-16.41648 26.8899,5.23838 0,0 z m 45.2137,-2.37818 c -12.53312,-22.21039 11.04642,0.83556 0,0 z m 64.37937,-2.62837 c 1.24084,-3.35976 2.24359,3.34884 0,0 z m -107.47191,-4.45493 c -18.00953,-14.6692 34.74411,1.84753 0,0 z m -0.91544,-14.36297 c 4.42396,-8.33751 17.42845,5.11756 0,0 z m 39.7629,-9.99914 c -29.00364,-41.62143 11.72356,-1.755 0,0 z m 11.5352,-2.97861 c -16.55906,-25.29504 20.95919,16.44062 0,0 z m -24.69311,2.90007 c -5.9321,-13.84805 12.66359,1.58007 0,0 z m 36.75819,-5.37706 c -17.26456,-23.34726 20.86761,15.62761 -10e-6,10e-6 z m 12.62815,0.0732 c -11.29671,-17.82805 13.88908,3.46019 0,0 z m 106.1062,106.14614 c -4.13235,-1.35043 -0.40882,1.81474 0,0 z M 111.30714,849.33657 c 20.89804,-1.72553 9.41613,-2.12383 25.68843,-2.67868 11.60061,-8.33704 35.40532,-16.66676 55.07936,-21.77029 5.14595,0.36091 43.88622,-9.62986 39.3121,-10.87414 -14.65667,-3.98745 -20.02688,-27.04833 -5.06743,-9.92415 -23.89196,-15.96757 -21.39798,-29.2873 -36.67549,-55.23322 -14.87912,-16.09057 -10.37495,-61.17923 -35.89558,-59.14792 -24.61176,-5.31772 -61.095628,-6.65847 -55.351064,30.19982 0.786575,-16.36943 0.472563,-42.74081 -8.950567,-11.65221 -16.070122,37.50449 14.372501,-31.67711 -12.354335,-11.67497 -27.23457,-4.40811 -24.841591,25.51137 -33.425388,31.77465 2.895597,-36.01638 -13.392504,25.30167 -9.712063,36.20762 -5.515462,15.22085 12.646946,73.43002 5.944705,28.01833 -6.146118,-13.30157 7.188122,-88.9458 3.897877,-39.45589 -6.693115,22.44877 4.483478,49.95706 3.826966,67.32013 -13.442661,-7.28333 27.097123,33.87162 44.881261,28.86226 6.117801,0.20149 12.523268,3.23173 18.801218,0.0287 z m -24.078257,-7.32744 c -18.072288,-10.52914 -22.615972,-85.96388 -11.96058,-33.33554 -3.029294,5.9507 25.541727,44.96839 11.96058,33.33554 z m 11.735148,-0.57356 C 83.257579,829.1137 75.461885,775.04315 88.7924,819.22678 c -0.986836,1.99329 24.97555,33.75527 10.171631,22.20879 z m 11.392669,-0.27285 c -15.274545,-14.00865 -23.982761,-57.53283 -7.50803,-17.34252 0.14656,2.22574 19.25072,23.09833 7.50803,17.34252 z M 73.155832,837.2542 C 49.076096,799.00659 55.777929,750.27773 65.81744,709.55889 c 14.098513,-21.07434 -8.523079,35.19762 -5.521696,46.08446 -6.134692,28.22625 10.347397,66.38324 14.641715,84.18675 l -1.781629,-2.57591 z m 44.511278,-1.75808 c -13.31228,-13.24585 -18.931803,-52.15406 -6.24325,-20.13397 -3.00203,4.773 26.4736,37.23503 6.24325,20.13397 z m 12.84716,0.30801 c -13.69608,-10.47209 -24.34273,-58.7906 -7.6479,-19.63436 -1.94053,3.86057 14.98335,20.832 7.6479,19.63436 z m 8.70975,-4.71357 c -14.5511,-13.3597 -15.70576,-44.40554 -3.33317,-8.94655 2.1312,0.42082 14.08449,14.73362 3.33317,8.94655 z m -82.333018,-2.32099 c -8.04102,-23.40259 -14.870221,-62.65178 -7.687711,-77.46294 5.856063,-2.27472 -3.696075,53.82076 9.72449,70.64039 7.487066,-0.24716 -0.121337,12.82464 -2.036779,6.82255 z m 87.819058,-3.30602 c -9.69532,-12.16371 -15.89393,-53.78609 -3.11428,-17.35778 -1.36111,3.00454 16.53476,28.50882 3.11428,17.35778 z m 13.70729,0.47782 c -13.34305,-10.27139 -20.13743,-54.1515 -4.68871,-15.88534 1.92446,2.0462 13.99215,25.2554 4.68871,15.88534 z m 7.11657,-5.23092 c -12.12662,-7.93602 -14.4854,-47.97444 -3.49278,-15.58034 0.47165,2.2149 18.09529,30.97208 3.49278,15.58034 z m 10.57578,-1.09942 c -13.4207,-11.93155 -14.88057,-60.72171 -4.91066,-20.77334 14.76932,37.29092 -5.70477,-48.67608 7.72389,-8.84674 1.14424,11.2677 25.53111,45.74631 1.07249,20.8708 3.50167,9.61557 -3.27356,8.293 -3.88572,8.74928 z m 18.80341,-6.52786 c -14.63397,-16.60718 -14.47032,-56.54412 -3.39979,-14.24548 -1.38395,3.68046 18.83295,25.873 3.39979,14.24548 z m 10.28618,-0.949 c -15.19089,-14.79825 -12.89815,-50.8345 -3.27277,-10.88524 9.67099,-13.67651 24.61532,27.39609 7.35102,2.21336 -8.56246,-5.37411 11.09221,25.08395 -4.07825,8.67188 z m -80.22888,-11.39189 c -1.19046,-6.10247 4.79101,3.63321 0,0 z m 17.7331,-10.18517 c -1.35011,-10.88975 6.53443,5.80588 0,0 z M 44.058496,779.57675 c 0.344187,-4.64313 3.005022,3.13635 0,0 z m 6.641096,-38.25407 c -2.102887,-14.08692 17.324453,-53.84066 8.025418,-17.43251 -1.75628,1.00554 -5.558428,26.55337 -8.025418,17.43251 z m 20.592568,-8.30706 c -0.500824,-19.52628 19.103564,-53.15842 5.778648,-13.87387 -2.979334,0.72379 0.03067,18.2928 -5.778648,13.87387 z m 12.792368,-6.24159 c 1.994324,-4.68065 3.664527,3.41097 0,0 z m -32.995763,-4.24231 c 0.555572,-4.64588 2.892451,3.34204 0,0 z m 58.521845,-18.97901 c 5.32772,-32.70474 2.42282,30.54434 0,0 z m 12.74574,6.34373 c -2.24945,-23.37874 6.34555,-13.45332 0,-2e-5 z m 20.80628,-4.54676 c -4.85924,-21.37337 10.20281,-8.93705 0,0 z m -9.61132,-4.40693 c 0.52406,-22.5584 5.14866,12.43668 0,-2e-5 z m 19.91595,-2.15516 c 1.02975,-24.45178 5.52723,21.17545 0,0 z m 9.80709,1.06282 c 2.33736,-4.96727 2.33732,4.96725 0,0 z m 467.59711,148.48094 c -2.2436,-3.34885 -1.24086,3.35971 0,0 z M 314.946,845.61845 c 31.82786,1.29812 -15.98773,-54.59735 -18.46735,-12.52739 -2.27088,9.68369 10.46904,18.88997 18.46735,12.52739 z m -9.32713,-9.76915 c -4.40317,-27.42642 24.39418,8.29475 0,0 z m 286.83609,11.85767 c -5.1915,-1.53012 -0.94219,1.65003 0,0 z m 31.79842,-0.81251 c -4.44255,-4.05171 1.08794,5.10166 0,0 z m -453.83331,-0.84901 c 31.7438,-6.37916 84.83499,1.37638 103.43497,-5.72737 -27.80588,-28.22312 -64.68345,-6.82596 -99.83709,-0.94685 -11.64371,-0.008 -28.21321,12.6838 -3.59788,6.67422 z m -23.17223,-1.06933 c -2.7153,-1.79646 -2.20006,3.23809 0,0 z m 10.3701,-3.71529 c -4.4147,-4.96184 -1.04522,4.83635 0,0 z m 426.58808,-0.47137 c -2.37945,-3.23754 -1.07771,3.40294 0,0 z M 239.90913,818.16379 c -3.03456,-9.78784 -1.61949,8.95951 0,0 z m 47.30956,-4.67254 c 23.55773,-15.9182 -1.78616,-59.08835 5.1288,-85.57309 -0.68732,-31.32606 0.42961,-67.09043 2.15221,-95.79151 16.60807,-40.88009 -23.21669,-17.32023 -39.41608,-20.87471 2.90291,-19.27583 55.63505,1.51094 35.89281,-30.96534 -46.7724,-6.80152 -34.80026,45.94903 -58.86498,68.93074 -42.66425,23.05118 -12.54334,68.54718 0.92536,101.46988 9.61322,16.13133 35.91582,60.12806 17.91199,15.93131 12.08584,13.19299 11.29604,42.11787 36.26989,46.87272 z m -1.01916,-5.24938 c -20.82116,-0.48039 -23.3289,-50.95106 -10.65294,-13.64649 19.17462,33.41741 -10.37557,-48.27992 7.56536,-6.05973 0.12509,4.23194 16.17528,26.93275 3.08758,19.70622 z m 4.25664,-8.69171 c -6.8691,-18.09741 -0.93608,-36.92538 2.35717,-8.28942 0.5893,2.39562 5.03553,17.17778 -2.35717,8.28942 z m -4.86181,-57.54758 c -8.99698,-15.29004 -4.21288,-38.24777 0.3641,-7.4259 0.33661,-3.24078 3.7054,9.526 -0.3641,7.4259 z m -14.62291,-11.93301 c -7.4389,-22.12212 -1.25305,-32.86708 2.94229,-4.13845 4.05274,0.43177 0.005,16.57816 -2.94229,4.13845 z m -10.97367,-5.47233 c -10.27116,-16.70023 -3.70209,-49.76023 -0.093,-12.83235 -0.61269,1.24203 7.41077,21.00532 0.093,12.83235 z M 245.8258,709.51346 c -6.54487,-16.40199 -5.09422,-58.13785 0.0643,-16.21209 -0.41638,0.83634 6.14451,24.4304 -0.0643,16.21209 z m -12.55128,-14.10112 c -9.00831,-18.50795 0.61874,-30.56602 1.95062,-2.72632 l -0.0426,3.03892 -1.90801,-0.31258 z m 472.78359,113.16758 c 29.19011,-2.22571 -23.14118,-12.34995 -30.86363,-5.61225 4.40918,8.30933 22.27527,6.15622 30.86363,5.61225 z m -444.7392,-17.33976 c -2.7153,-1.79645 -2.20007,3.2381 0,0 z M 45.432348,708.27939 c -2.715292,-1.79646 -2.200056,3.2381 0,0 z M 133.1068,685.238 c -2.2436,-3.34885 -1.24086,3.35972 0,0 z m 18.85472,-2.88386 c -2.6815,-1.76966 -2.10263,3.17688 0,0 z m 66.93426,-80.43833 c -4.82681,-2.90382 -6.54618,1.58404 0,0 z m -5.47965,-3.11078 c -4.13236,-1.35045 -0.40885,1.81473 0,0 z m 11.30865,-5.99412 c 22.28158,-14.48868 46.10775,-36.72202 55.72019,-59.24768 -10.83102,-27.1457 -32.3321,30.36784 -53.77162,30.88844 -18.55395,1.78609 -22.61358,35.84303 -1.94857,28.35924 z m 51.99448,-60.83088 c -0.33132,-7.55376 2.84539,5.31725 0,0 z m 27.78774,0.49801 c 11.08108,-32.122 -38.29865,-27.90558 -14.17476,0.74376 4.35965,0.85726 10.24915,2.60514 14.17476,-0.74376 z M 68.058014,282.74533 c -1.772642,-11.38832 -2.597738,10.01957 0,0 z m -0.759932,-11.60416 c -2.809957,-20.80183 -0.730217,20.50201 0,0 z m -0.28055,-15.05714 c 2.497453,-33.42615 -4.710361,25.34531 0,0 z m 1.620622,-21.1861 c -0.87521,-51.52905 -3.564455,36.66265 0,0 z M 268.54653,825.07717 c 1.12767,-23.27524 16.3685,1.09299 0,0 z m -10.85521,-7.21202 c 9.83723,-25.03374 14.94829,5.93824 0,0 z m -6.97819,-6.83995 c 0.22043,-13.61105 15.69909,-9.14377 0,0 z m -6.36347,-12.41467 c 4.47569,-10.96463 8.67651,2.19558 0,0 z M 51.560133,682.40979 c 1.077702,-3.40297 2.379435,3.23752 0,0 z m 0,-2.8282 c 3.71211,-3.31285 2.339991,3.46867 0,0 z m 1.414104,-7.01488 c 0.136987,-11.67663 4.81368,7.44426 0,0 z m 2.263308,-8.16787 c 7.123695,-30.30124 4.711668,9.87716 0,0 z m 5.07359,-14.56132 c 0.576509,-16.49252 6.050539,-5.1104 0,0 z M 156.6752,639.13617 c -24.7164,-0.25828 -43.37123,-66.44695 -19.82246,-20.21863 -0.24166,3.98472 29.84314,23.97065 19.82246,20.21863 z m -28.75346,-6.17198 c -14.15558,-11.04888 -15.16896,-28.53535 -0.95435,-5.14665 0.56273,0.19217 13.17248,13.29166 0.95435,5.14665 z m 36.50825,-0.52293 c -21.77388,-11.85212 21.92137,4.69616 -1e-5,-1e-5 z m 17.1722,-0.49783 c 25.23675,-14.27831 6.42674,4.47524 0,0 z M 64.700837,627.02405 c 8.962267,-25.9251 8.087605,-98.83266 13.455604,-96.15909 -0.0089,34.27149 -5.140467,68.42256 -13.035259,101.57981 l -0.420347,-5.42073 z M 150.5108,623.2531 c -13.61414,-9.00747 -16.30651,-43.70758 -5.13074,-10.90712 -0.38282,1.33491 16.04746,16.69902 5.13074,10.90712 z m -36.63132,-12.1024 c -3.18843,-8.34389 6.09877,3.86951 0,0 z m 30.06878,-54.62472 c -26.25057,-5.55247 -41.57116,-31.07156 -53.573991,-56.16719 -8.898733,-12.88132 -21.593666,-67.75264 -6.188785,-26.65606 10.119752,27.36184 25.888366,71.77685 61.449806,67.50335 -38.49712,-9.40588 48.65155,-18.72538 9.68875,-2.64207 -29.10755,27.11095 50.35221,-17.69516 26.93524,11.46439 -10.327,7.93863 -25.93742,9.80697 -38.31102,6.49758 z m 93.5216,-16.27025 c -7.54809,-12.13903 12.94478,7.54869 0,0 z m -10.56708,-6.57965 c -40.02164,-9.39052 -13.94749,-55.7388 16.27854,-51.97961 27.2436,-36.34717 -12.23119,-81.64742 -32.17956,-113.03242 -13.4901,-9.77323 -29.48937,-58.81372 -40.26771,-47.51417 6.78943,39.68778 33.86413,70.32354 54.76088,102.96139 -10.09871,-6.32528 -44.49942,-66.54697 -35.05177,-24.52232 2.95859,10.10342 49.81545,66.35817 19.02525,39.15896 -37.65864,-23.67058 31.39418,54.17642 -8.35309,18.21196 -11.4107,-12.67112 -15.40729,-28.90464 -2.23419,-34.04794 -20.52358,-26.5319 -9.54753,-57.03667 -28.65318,-84.26921 2.4281,-34.98288 -17.70032,-62.90199 -30.52201,-94.52154 -2.38686,-14.06423 -26.99531,-50.84297 -19.69367,-14.26626 5.0536,39.38649 26.11613,74.43295 45.14754,108.24045 -19.01855,-19.1748 -32.72711,-52.51637 -44.30859,-79.58087 -15.53082,-22.54704 -1.57268,41.19982 5.57234,51.04316 12.44517,27.28467 31.11115,52.00124 50.99182,73.74318 -25.40233,-11.59789 -39.91507,-55.58906 -62.76085,-66.60793 3.15645,33.05189 30.29104,62.74001 55.10262,84.8009 41.92979,32.3953 -24.48664,-8.84783 -30.65366,-24.73284 -36.04882,-17.65506 16.07904,48.81818 34.54095,50.2743 5.58509,4.43404 -66.63562,-29.65867 -28.14596,1.91155 16.71203,8.82842 46.32689,27.85993 9.50628,12.12252 -44.00105,-10.87342 -1.66288,25.55004 18.30473,21.35072 -31.8549,5.53794 -34.33727,5.29688 -47.86616,-21.96374 28.81534,-6.30706 10.56352,-7.08597 2.96392,-15.87207 -13.26447,-17.6218 25.93721,-12.95535 -0.88049,-29.28463 -23.40679,-23.23637 9.60092,-34.3487 -14.42197,-57.45988 -16.720505,-24.97111 17.2761,-27.56426 -1.07272,-51.74268 -7.61602,-19.2528 -3.26635,-40.7591 4.63322,-43.234 -15.16054,-19.4404 5.482,-56.18143 16.23985,-20.744 20.78418,46.04542 39.68293,93.42773 72.79233,132.14915 23.23643,36.69344 60.32914,75.57873 49.13836,122.73064 -5.84303,21.31804 -61.23673,22.2277 -31.11896,49.3703 3.51244,0.93056 17.89924,15.41211 3.18591,7.30693 z m -52.24117,-4.69659 c -28.9752,-13.40567 32.77369,-2.93518 0,0 z m -39.66934,-4.92761 c 16.19399,-8.95706 -33.00474,-5.7851 -8.81253,-16.55716 12.79005,7.7674 44.80338,-4.45737 16.57958,13.70385 0.32695,-1.57185 -6.55634,6.82852 -7.76705,2.85331 z m -59.028434,-5.13033 c -1.173728,-19.25801 7.351454,-54.44554 3.585211,-15.37023 -1.195309,1.40954 1.172297,24.3995 -3.585211,15.37023 z m 94.852404,0.21997 c 6.48271,-9.60578 -9.51268,-21.39405 8.80302,-25.51464 -7.16001,-50.22279 15.87106,33.86447 14.56259,10.07386 -23.51637,-12.40219 -9.9832,16.57828 -13.14459,10.82916 -2.62701,-3.70886 -7.34556,9.45136 -10.22102,4.61162 z m 102.64307,-14.67316 c 1.63541,-41.01697 8.01462,-81.8675 10.88421,-122.80426 11.86322,21.33123 -5.53764,67.74423 -4.04541,98.45185 -4.40092,4.8089 3.09138,28.68454 -6.8388,24.35241 z m -145.4597,-5.7661 c 33.12858,-10.10853 -25.52495,-11.62186 1.27164,-30.1375 -12.81482,22.5283 35.16142,9.7534 38.83503,20.58412 -13.58329,-5.92141 -27.7358,9.41399 -40.10667,9.55338 z m 66.02911,-14.84671 c -14.67236,-17.57594 1.59182,-51.57946 3.09704,-13.43729 14.65541,15.32979 5.6758,15.57656 -3.58282,2.84488 -0.41478,6.32267 16.63565,24.31743 0.48578,10.59241 z m -10.01417,-6.01949 c 3.67969,-3.44396 3.67962,3.44394 0,0 z M 81.056498,454.50334 c -3.687764,-25.5956 4.486033,-11.33191 2.304511,6.16855 l -2.304513,-6.16856 z M 245.29239,440.65362 c 2.2001,-3.23813 2.71523,1.79646 0,0 z M 80.175085,427.3371 c -1.615424,-20.12189 5.376231,-6.75992 0,0 z m 0.204763,-20.9133 c 0.782818,-9.218 2.594804,11.66767 0,0 z m -0.138399,-19.79746 c -4.940444,-29.49102 6.820475,-14.40672 0,0 z M 282.63217,373.5888 c 12.78485,-62.80144 16.18837,-127.13794 26.8641,-190.44927 6.87926,-35.43397 7.92511,-72.87119 19.12975,-107.068464 -1.6495,47.975484 -16.71739,94.193894 -19.26032,142.003864 -8.62959,47.258 -10.0935,95.72507 -18.98973,142.81079 -1.39561,0.66327 -5.28643,18.35034 -7.7438,12.70308 z M 79.559392,365.4619 c -4.430837,-22.30985 6.741346,2.84966 0,0 z m 0.04714,-8.92043 c -3.697195,-22.23473 4.42231,-8.97534 0,0 z m 547.072378,-3.06606 c 0.30163,-4.61356 4.2613,1.79344 0,0 z M 86.912736,341.13933 c 2.501665,-3.41632 3.543669,3.35352 0,0 z m -8.89413,-10.13442 c -3.679749,-19.2856 2.714646,-68.03363 2.080039,-62.07909 -0.608353,15.32518 2.730254,77.8893 -1.570439,68.09448 l -0.509602,-6.0154 z m -9.017855,-34.17418 c 1.684446,-5.38256 1.617197,5.17431 0,0 z m 9.40794,-44.3206 c -3.762828,-5.96331 7.051609,1.10398 0,0 z m 1.367777,-15.37455 c -4.673607,-22.86431 4.682077,9.38257 0,0 z m 3.12964,-12.60266 c -8.330792,-5.16179 8.798457,1.92368 0,0 z m -2.382755,-10.24506 c -8.377924,-12.35464 16.268746,6.48529 0,0 z m -10.097458,-5.33283 c -27.973752,-12.70644 18.393075,2.30528 0,0 z m 6.116744,-7.14418 c -15.852209,-4.73123 -29.049192,-21.86856 -3.67375,-5.85289 7.761313,1.18567 20.01987,11.55758 3.67375,5.85289 z m 3.299577,-12.89173 c -17.446649,-0.54972 -44.023333,-25.69631 -11.355428,-8.0337 0.684312,1.60106 25.139865,8.99184 11.355428,8.0337 z m 2.232201,-13.1975 c -15.253324,2.05428 -55.744218,-27.45609 -22.029661,-11.44354 0.778267,0.08 32.663513,12.92885 22.029661,11.44354 z m -3.646305,-14.19683 c -17.237626,1.98749 -53.078642,-25.75814 -17.502577,-9.90742 1.411609,-0.34176 28.983364,11.1856 17.502577,9.90742 z m -8.013257,-13.34193 c -18.558458,-1.8943 -48.205815,-30.31474 -12.504048,-9.64683 7.212999,0.58675 33.400032,14.8942 12.504048,9.64683 z m -4.395093,-13.58868 c -16.458426,-2.07349 -44.763446,-26.90554 -11.325694,-9.45938 3.216199,2.75038 36.097795,15.71812 11.325694,9.45938 z m -3.146796,-14.23864 c -36.499284,-18.23544 25.511186,3.7045 -2e-6,0 z m -20.740194,-9.25905 c -15.558357,-16.405404 -0.09916,-0.91195 3.034938,0.88893 l -3.03494,-0.88893 z m 24.982506,-3.42771 C 49.628273,104.30605 19.263624,77.931916 52.918259,97.086226 52.576902,97.888466 77.673172,108.84785 67.115278,107.66878 Z M 64.818761,93.622826 c -20.09804,-5.00295 -38.739606,-28.36527 -6.821883,-7.55359 1.403833,0.03538 17.339226,11.45015 6.821883,7.55359 z m -9.016316,-18.34776 c -51.065836,-28.226938 28.107713,4.07971 0,0 z m 270.985865,-1.95495 c -1.17989,-20.493516 8.80936,-29.743473 2.76288,-0.62491 l -1.23177,1.58483 -1.53112,-0.95992 z M 61.024571,62.344066 C 37.937,54.404519 39.611974,43.368947 62.106146,59.778136 c 7.478837,0.59726 0.742336,5.439 -1.081575,2.56593 z m -0.04289,-16.139434 c -46.349179,-24.800286 11.986832,-4.458513 0,0 z"
       id="path2221"
       clip-path="url(#clipPath15)"
       transform="rotate(-45.508659,183.90621,381.25082)" />
  </g>
</svg>
