<?xml version="1.0" encoding="UTF-8" standalone="no"?>
<svg
   xmlns:dc="http://purl.org/dc/elements/1.1/"
   xmlns:cc="http://creativecommons.org/ns#"
   xmlns:rdf="http://www.w3.org/1999/02/22-rdf-syntax-ns#"
   xmlns:svg="http://www.w3.org/2000/svg"
   xmlns="http://www.w3.org/2000/svg"
   xmlns:sodipodi="http://sodipodi.sourceforge.net/DTD/sodipodi-0.dtd"
   xmlns:inkscape="http://www.inkscape.org/namespaces/inkscape"
   version="1.0"
   inkscape:output_extension="org.inkscape.output.svg.inkscape"
   sodipodi:docname="talaria-gold.svg"
   inkscape:version="1.0 (4035a4fb49, 2020-05-01)"
   sodipodi:version="0.32"
   id="svg2"
   height="64.54348mm"
   width="86.878914mm">
  <defs
     id="defs4" />
  <sodipodi:namedview
     units="mm"
     inkscape:window-maximized="1"
     fit-margin-bottom="0"
     fit-margin-right="0"
     fit-margin-left="0"
     fit-margin-top="0"
     showgrid="false"
     inkscape:document-rotation="0"
     inkscape:window-y="27"
     inkscape:window-x="1920"
     inkscape:window-height="1016"
     inkscape:window-width="1920"
     inkscape:current-layer="layer1"
     inkscape:document-units="px"
     inkscape:cy="123.56999"
     inkscape:cx="5.6362659"
     inkscape:zoom="1.6807812"
     inkscape:pageshadow="2"
     inkscape:pageopacity="0.0"
     objecttolerance="10"
     guidetolerance="10"
     gridtolerance="10000"
     borderopacity="1.0"
     bordercolor="#666666"
     pagecolor="#ffffff"
     id="base" />
  <metadata
     id="metadata7">
    <rdf:RDF>
      <cc:Work
         rdf:about="">
        <dc:format>image/svg+xml</dc:format>
        <dc:type
           rdf:resource="http://purl.org/dc/dcmitype/StillImage" />
        <dc:title></dc:title>
      </cc:Work>
    </rdf:RDF>
  </metadata>
  <g
     transform="translate(-412.95284,-268.94368)"
     id="layer1"
     inkscape:groupmode="layer"
     inkscape:label="Layer 1">
    <path
       sodipodi:nodetypes="scccccccccccccccccccccccccccccccccsscccsscssccccsccccccscccscccsccccssccccssscccscccc"
       d="m 431.03906,81.429688 c -15.27088,-0.135751 -3.73204,28.019502 16.55078,30.345702 -3.77054,7.36962 8.52232,25.54406 27.59375,33.60352 30.10671,3.85502 8.13106,29.92398 37.66211,35.49609 33.32178,-0.94053 18.11833,30.39377 51.09766,29.98047 30.44248,-7.68699 -0.35858,17.00744 21.50781,19.89453 11.59343,0.73609 24.93879,-11.73927 9.24414,13.23633 28.6007,9.34654 30.8196,7.84494 48.62305,-17.90235 -12.24414,16.48373 -65.41602,20.61501 -27.46875,-2.75586 37.03032,-15.23741 2.69908,-7.44755 -15.31055,-1.71289 -49.49443,5.33239 25.43842,-22.29474 18.36133,-21.41796 -13.97686,12.14947 -97.92577,2.75116 -60.06836,-10.5918 15.65353,6.73295 91.61885,-11.74337 39.125,-4.53516 -33.12526,2.2392 -73.31954,0.79005 -99.10937,-20.12109 23.87074,-8.57514 65.42262,11.90129 91.49804,1.9082 -29.44215,-1.05478 -60.15455,-5.05944 -88.33984,-15.30273 -12.02905,-1.80128 -67.28645,-36.51887 -40.31836,-31.79688 27.42296,10.70512 60.81558,24.29138 87.82227,24.16211 -37.45404,-10.11617 -77.21534,-19.65134 -108.85352,-43.64844 -31.20923,-20.424284 12.273,-12.204337 23.97852,-4.050777 31.54147,13.012587 65.56275,18.220587 88.8164,44.468747 32.81577,5.45547 46.88566,34.66227 80.19531,38.61524 -5.56272,13.00154 8.81786,21.52754 25.85352,22.26758 53.51042,-3.15002 -50.41546,-8.44701 -7.13867,-18.72266 40.98055,-2.90314 -31.98686,-8.90113 -41.26758,-13.87109 -36.59948,-22.7114 30.46922,-5.04714 42.05859,-7.81836 -37.92689,-7.96582 -78.7546,-10.12183 -111.82422,-33.0918 -0.50711,-15.60754 45.68761,7.34642 62.11329,4.57226 36.36853,7.76438 96.34746,11.35127 103.18359,56.25782 -23.86409,18.92748 -9.07417,70.00981 25.67188,48.04101 16.09298,-4.81572 -4.31997,-4.70113 -7.44532,-2.84765 -40.46892,2.46313 -2.2976,-37.69096 -13.41015,-56.79883 -25.7936,-41.02714 -79.52671,-41.81807 -121.98633,-50.95703 -50.82529,-3.51723 -97.87084,-23.24143 -145.2832,-40.683596 -5.6407,-2.94945 -9.96339,-4.194486 -13.13282,-4.222656 z M 651.90234,204.56055 c -6.32745,0.0861 5.05773,19.55696 21.81641,20.91601 21.10868,-1.9021 -3.67684,-2.3513 -7.89648,-7.07812 15.57068,2.31768 21.68856,-4.26022 0.48242,-4.54883 -7.50757,-6.81496 -12.1137,-9.3202 -14.40235,-9.28906 z m 92.6836,26.80078 c -3.55072,0.10269 -7.16404,1.08911 -0.18946,2.65039 7.22832,-1.97206 3.74019,-2.75308 0.18946,-2.65039 z m -85.39258,0.16797 c -2.32356,-0.11067 -0.0891,2.60986 11.39844,11.07226 -9.89622,15.95334 9.722,12.80588 12.03125,24.16211 5.46758,1.34047 -0.61372,-11.24862 3.87304,-10.52344 5.89059,1.65415 -19.91762,-7.50017 -2.88867,-15.29882 -8.2347,-3.20687 -21.06326,-9.25252 -24.41406,-9.41211 z m 24.41406,9.41211 c 6.35807,2.47604 9.97869,3.26088 4.37696,-1.66797 -1.7084,0.54529 -3.14523,1.10388 -4.37696,1.66797 z m 68.73438,-0.77539 c -2.23595,19.16887 -8.11497,37.96913 -17.2793,54.88086 11.97016,-14.92888 17.88613,-33.71862 17.2793,-54.88086 z m -95.10352,7.11523 c -11.20604,0.55744 -33.16165,37.04514 -39.80859,13.67383 -5.57084,32.0913 36.613,-8.68921 20.60742,22.02734 8.57009,-8.92252 7.54781,-29.76469 21.29101,-35.30469 -0.64377,-0.3106 -1.34277,-0.43364 -2.08984,-0.39648 z m 39.42578,14.45313 c -4.7233,-0.14034 -26.26308,17.45971 -4.32812,9.17968 5.54467,-6.75651 6.03655,-9.12901 4.32812,-9.17968 z m 11.79492,9.1582 c -8.1975,0.74908 -23.69821,52.84101 -22.83789,20.5332 15.83205,-39.06557 -38.59288,29.63418 -4.90429,8.76367 -21.87298,28.36285 -64.60807,8.48553 -91.21875,-3.4707 -7.27328,-3.22961 -11.60101,-4.95704 -13.81446,-5.45898 -0.77708,-0.15871 0.10811,1.20008 0.28608,1.42749 0.66561,0.85053 1.00116,1.05442 1.98217,1.85824 0.128,0.10488 0.94777,0.69822 1.0775,0.79044 8.5678,5.43097 25.6971,14.23711 33.82226,15.64844 26.31373,9.02476 55.254,15.97936 77.61133,1.14453 11.03221,-6.50756 20.63879,-18.95259 22.21289,-31.88282 -0.82322,-6.96369 -2.32507,-9.52638 -4.2168,-9.35351 z m -43.4707,2.48437 c -3.25673,0.29627 -12.43669,14.65111 -21.95508,17.06641 -9.26961,24.80674 22.94748,-12.5128 17.98828,5.31641 3.68421,1.92216 2.51605,-8.87581 3.40821,-7.54102 2.34571,-11.29598 2.26449,-14.99698 0.55859,-14.8418 z m -65.16406,51.61719 c -0.0755,0.0852 -0.16178,0.16252 -0.24219,0.24414 0.20318,0.0452 0.40631,0.0901 0.60938,0.13477 -0.12282,-0.12606 -0.24444,-0.2528 -0.36719,-0.37891 z"
       transform="translate(-11.070091,187.51448)"
       style="fill:#ffae00;fill-opacity:1"
       clip-path="none"
       id="path2221" />
  </g>
</svg>
